<svg xmlns="http://www.w3.org/2000/svg" xmlns:xlink="http://www.w3.org/1999/xlink" width="1080" zoomAndPan="magnify" viewBox="0 0 810 809.999993" height="1080" preserveAspectRatio="xMidYMid meet" version="1.0"><path fill="#ffffff" d="M 33.75 675 L 33.75 580.5 C 33.75 561.375 38.671875 543.796875 48.515625 527.765625 C 58.359375 511.734375 71.4375 499.5 87.75 491.0625 C 122.625 473.625 158.0625 460.546875 194.0625 451.828125 C 230.0625 443.109375 266.625 438.75 303.75 438.75 C 340.875 438.75 377.4375 443.109375 413.4375 451.828125 C 449.4375 460.546875 484.875 473.625 519.75 491.0625 C 536.0625 499.5 549.140625 511.734375 558.984375 527.765625 C 568.828125 543.796875 573.75 561.375 573.75 580.5 L 573.75 675 Z M 641.25 675 L 641.25 573.75 C 641.25 549 634.359375 525.234375 620.578125 502.453125 C 606.796875 479.671875 587.25 460.125 561.9375 443.8125 C 590.625 447.1875 617.625 452.953125 642.9375 461.109375 C 668.25 469.265625 691.875 479.25 713.8125 491.0625 C 734.0625 502.3125 749.53125 514.828125 760.21875 528.609375 C 770.90625 542.390625 776.25 557.4375 776.25 573.75 L 776.25 675 Z M 303.75 405 C 266.625 405 234.84375 391.78125 208.40625 365.34375 C 181.96875 338.90625 168.75 307.125 168.75 270 C 168.75 232.875 181.96875 201.09375 208.40625 174.65625 C 234.84375 148.21875 266.625 135 303.75 135 C 340.875 135 372.65625 148.21875 399.09375 174.65625 C 425.53125 201.09375 438.75 232.875 438.75 270 C 438.75 307.125 425.53125 338.90625 399.09375 365.34375 C 372.65625 391.78125 340.875 405 303.75 405 Z M 641.25 270 C 641.25 307.125 628.03125 338.90625 601.59375 365.34375 C 575.15625 391.78125 543.375 405 506.25 405 C 500.0625 405 492.1875 404.296875 482.625 402.890625 C 473.0625 401.484375 465.1875 399.9375 459 398.25 C 474.1875 380.25 485.859375 360.28125 494.015625 338.34375 C 502.171875 316.40625 506.25 293.625 506.25 270 C 506.25 246.375 502.171875 223.59375 494.015625 201.65625 C 485.859375 179.71875 474.1875 159.75 459 141.75 C 466.875 138.9375 474.75 137.109375 482.625 136.265625 C 490.5 135.421875 498.375 135 506.25 135 C 543.375 135 575.15625 148.21875 601.59375 174.65625 C 628.03125 201.09375 641.25 232.875 641.25 270 Z M 101.25 607.5 L 506.25 607.5 L 506.25 580.5 C 506.25 574.3125 504.703125 568.6875 501.609375 563.625 C 498.515625 558.5625 494.4375 554.625 489.375 551.8125 C 459 536.625 428.34375 525.234375 397.40625 517.640625 C 366.46875 510.046875 335.25 506.25 303.75 506.25 C 272.25 506.25 241.03125 510.046875 210.09375 517.640625 C 179.15625 525.234375 148.5 536.625 118.125 551.8125 C 113.0625 554.625 108.984375 558.5625 105.890625 563.625 C 102.796875 568.6875 101.25 574.3125 101.25 580.5 Z M 303.75 337.5 C 322.3125 337.5 338.203125 330.890625 351.421875 317.671875 C 364.640625 304.453125 371.25 288.5625 371.25 270 C 371.25 251.4375 364.640625 235.546875 351.421875 222.328125 C 338.203125 209.109375 322.3125 202.5 303.75 202.5 C 285.1875 202.5 269.296875 209.109375 256.078125 222.328125 C 242.859375 235.546875 236.25 251.4375 236.25 270 C 236.25 288.5625 242.859375 304.453125 256.078125 317.671875 C 269.296875 330.890625 285.1875 337.5 303.75 337.5 Z M 303.75 607.5 Z M 303.75 270 Z M 303.75 270 " fill-opacity="1" fill-rule="nonzero"/></svg>