<svg xmlns="http://www.w3.org/2000/svg" xmlns:xlink="http://www.w3.org/1999/xlink" width="1080" zoomAndPan="magnify" viewBox="0 0 810 809.999993" height="1080" preserveAspectRatio="xMidYMid meet" version="1.0"><path fill="#ffffff" d="M 405 708.75 C 327.375 708.75 259.734375 683.015625 202.078125 631.546875 C 144.421875 580.078125 111.375 515.8125 102.9375 438.75 L 172.125 438.75 C 180 497.25 206.015625 545.625 250.171875 583.875 C 294.328125 622.125 345.9375 641.25 405 641.25 C 470.8125 641.25 526.640625 618.328125 572.484375 572.484375 C 618.328125 526.640625 641.25 470.8125 641.25 405 C 641.25 339.1875 618.328125 283.359375 572.484375 237.515625 C 526.640625 191.671875 470.8125 168.75 405 168.75 C 366.1875 168.75 329.90625 177.75 296.15625 195.75 C 262.40625 213.75 234 238.5 210.9375 270 L 303.75 270 L 303.75 337.5 L 101.25 337.5 L 101.25 135 L 168.75 135 L 168.75 214.3125 C 197.4375 178.3125 232.453125 150.46875 273.796875 130.78125 C 315.140625 111.09375 358.875 101.25 405 101.25 C 447.1875 101.25 486.703125 109.265625 523.546875 125.296875 C 560.390625 141.328125 592.453125 162.984375 619.734375 190.265625 C 647.015625 217.546875 668.671875 249.609375 684.703125 286.453125 C 700.734375 323.296875 708.75 362.8125 708.75 405 C 708.75 447.1875 700.734375 486.703125 684.703125 523.546875 C 668.671875 560.390625 647.015625 592.453125 619.734375 619.734375 C 592.453125 647.015625 560.390625 668.671875 523.546875 684.703125 C 486.703125 700.734375 447.1875 708.75 405 708.75 Z M 499.5 546.75 L 371.25 418.5 L 371.25 236.25 L 438.75 236.25 L 438.75 391.5 L 546.75 499.5 Z M 499.5 546.75 " fill-opacity="1" fill-rule="nonzero"/></svg>