<svg xmlns="http://www.w3.org/2000/svg" xmlns:xlink="http://www.w3.org/1999/xlink" width="1080" zoomAndPan="magnify" viewBox="0 0 810 809.999993" height="1080" preserveAspectRatio="xMidYMid meet" version="1.0"><path fill="#ffffff" d="M 270 371.25 C 279.5625 371.25 287.578125 368.015625 294.046875 361.546875 C 300.515625 355.078125 303.75 347.0625 303.75 337.5 C 303.75 327.9375 300.515625 319.921875 294.046875 313.453125 C 287.578125 306.984375 279.5625 303.75 270 303.75 C 260.4375 303.75 252.421875 306.984375 245.953125 313.453125 C 239.484375 319.921875 236.25 327.9375 236.25 337.5 C 236.25 347.0625 239.484375 355.078125 245.953125 361.546875 C 252.421875 368.015625 260.4375 371.25 270 371.25 Z M 405 371.25 C 414.5625 371.25 422.578125 368.015625 429.046875 361.546875 C 435.515625 355.078125 438.75 347.0625 438.75 337.5 C 438.75 327.9375 435.515625 319.921875 429.046875 313.453125 C 422.578125 306.984375 414.5625 303.75 405 303.75 C 395.4375 303.75 387.421875 306.984375 380.953125 313.453125 C 374.484375 319.921875 371.25 327.9375 371.25 337.5 C 371.25 347.0625 374.484375 355.078125 380.953125 361.546875 C 387.421875 368.015625 395.4375 371.25 405 371.25 Z M 540 371.25 C 549.5625 371.25 557.578125 368.015625 564.046875 361.546875 C 570.515625 355.078125 573.75 347.0625 573.75 337.5 C 573.75 327.9375 570.515625 319.921875 564.046875 313.453125 C 557.578125 306.984375 549.5625 303.75 540 303.75 C 530.4375 303.75 522.421875 306.984375 515.953125 313.453125 C 509.484375 319.921875 506.25 327.9375 506.25 337.5 C 506.25 347.0625 509.484375 355.078125 515.953125 361.546875 C 522.421875 368.015625 530.4375 371.25 540 371.25 Z M 67.5 742.5 L 67.5 135 C 67.5 116.4375 74.109375 100.546875 87.328125 87.328125 C 100.546875 74.109375 116.4375 67.5 135 67.5 L 675 67.5 C 693.5625 67.5 709.453125 74.109375 722.671875 87.328125 C 735.890625 100.546875 742.5 116.4375 742.5 135 L 742.5 540 C 742.5 558.5625 735.890625 574.453125 722.671875 587.671875 C 709.453125 600.890625 693.5625 607.5 675 607.5 L 202.5 607.5 Z M 173.8125 540 L 675 540 L 675 135 L 135 135 L 135 577.96875 Z M 135 540 L 135 135 Z M 135 540 " fill-opacity="1" fill-rule="nonzero"/></svg>