<svg xmlns="http://www.w3.org/2000/svg" xmlns:xlink="http://www.w3.org/1999/xlink" width="1080" zoomAndPan="magnify" viewBox="0 0 810 809.999993" height="1080" preserveAspectRatio="xMidYMid meet" version="1.0"><path fill="#000000" d="M 135 641.25 L 135 573.75 L 202.5 573.75 L 202.5 337.5 C 202.5 290.8125 216.5625 249.328125 244.6875 213.046875 C 272.8125 176.765625 309.375 153 354.375 141.75 L 354.375 118.125 C 354.375 104.0625 359.296875 92.109375 369.140625 82.265625 C 378.984375 72.421875 390.9375 67.5 405 67.5 C 419.0625 67.5 431.015625 72.421875 440.859375 82.265625 C 450.703125 92.109375 455.625 104.0625 455.625 118.125 L 455.625 141.75 C 500.625 153 537.1875 176.765625 565.3125 213.046875 C 593.4375 249.328125 607.5 290.8125 607.5 337.5 L 607.5 573.75 L 675 573.75 L 675 641.25 Z M 405 388.125 Z M 405 742.5 C 386.4375 742.5 370.546875 735.890625 357.328125 722.671875 C 344.109375 709.453125 337.5 693.5625 337.5 675 L 472.5 675 C 472.5 693.5625 465.890625 709.453125 452.671875 722.671875 C 439.453125 735.890625 423.5625 742.5 405 742.5 Z M 270 573.75 L 540 573.75 L 540 337.5 C 540 300.375 526.78125 268.59375 500.34375 242.15625 C 473.90625 215.71875 442.125 202.5 405 202.5 C 367.875 202.5 336.09375 215.71875 309.65625 242.15625 C 283.21875 268.59375 270 300.375 270 337.5 Z M 270 573.75 " fill-opacity="1" fill-rule="nonzero"/></svg>