<svg xmlns="http://www.w3.org/2000/svg" xmlns:xlink="http://www.w3.org/1999/xlink" width="1080" zoomAndPan="magnify" viewBox="0 0 810 809.999993" height="1080" preserveAspectRatio="xMidYMid meet" version="1.0"><path fill="#ffffff" d="M 405 742.5 C 326.8125 722.8125 262.265625 677.953125 211.359375 607.921875 C 160.453125 537.890625 135 460.125 135 374.625 L 135 168.75 L 405 67.5 L 675 168.75 L 675 374.625 C 675 422.4375 666.84375 468.421875 650.53125 512.578125 C 634.21875 556.734375 610.875 595.6875 580.5 629.4375 L 472.5 521.4375 C 462.375 527.625 451.546875 532.265625 440.015625 535.359375 C 428.484375 538.453125 416.8125 540 405 540 C 367.875 540 336.09375 526.78125 309.65625 500.34375 C 283.21875 473.90625 270 442.125 270 405 C 270 367.875 283.21875 336.09375 309.65625 309.65625 C 336.09375 283.21875 367.875 270 405 270 C 442.125 270 473.90625 283.21875 500.34375 309.65625 C 526.78125 336.09375 540 367.875 540 405 C 540 417.375 538.453125 429.328125 535.359375 440.859375 C 532.265625 452.390625 527.625 463.5 521.4375 474.1875 L 572.0625 524.8125 C 583.3125 501.75 592.03125 477.5625 598.21875 452.25 C 604.40625 426.9375 607.5 401.0625 607.5 374.625 L 607.5 215.15625 L 405 139.21875 L 202.5 215.15625 L 202.5 374.625 C 202.5 442.6875 221.625 504.5625 259.875 560.25 C 298.125 615.9375 346.5 653.0625 405 671.625 C 419.625 667.125 433.546875 661.359375 446.765625 654.328125 C 459.984375 647.296875 473.0625 639 486 629.4375 L 533.25 676.6875 C 514.6875 691.875 494.578125 705.09375 472.921875 716.34375 C 451.265625 727.59375 428.625 736.3125 405 742.5 Z M 405 472.5 C 423.5625 472.5 439.453125 465.890625 452.671875 452.671875 C 465.890625 439.453125 472.5 423.5625 472.5 405 C 472.5 386.4375 465.890625 370.546875 452.671875 357.328125 C 439.453125 344.109375 423.5625 337.5 405 337.5 C 386.4375 337.5 370.546875 344.109375 357.328125 357.328125 C 344.109375 370.546875 337.5 386.4375 337.5 405 C 337.5 423.5625 344.109375 439.453125 357.328125 452.671875 C 370.546875 465.890625 386.4375 472.5 405 472.5 Z M 411.75 407.53125 Z M 411.75 407.53125 " fill-opacity="1" fill-rule="nonzero"/></svg>