<svg xmlns="http://www.w3.org/2000/svg" xmlns:xlink="http://www.w3.org/1999/xlink" width="1080" zoomAndPan="magnify" viewBox="0 0 810 809.999993" height="1080" preserveAspectRatio="xMidYMid meet" version="1.0"><path fill="#ffffff" d="M 405 405 C 367.875 405 336.09375 391.78125 309.65625 365.34375 C 283.21875 338.90625 270 307.125 270 270 C 270 232.875 283.21875 201.09375 309.65625 174.65625 C 336.09375 148.21875 367.875 135 405 135 C 442.125 135 473.90625 148.21875 500.34375 174.65625 C 526.78125 201.09375 540 232.875 540 270 C 540 307.125 526.78125 338.90625 500.34375 365.34375 C 473.90625 391.78125 442.125 405 405 405 Z M 135 675 L 135 580.5 C 135 561.375 139.921875 543.796875 149.765625 527.765625 C 159.609375 511.734375 172.6875 499.5 189 491.0625 C 223.875 473.625 259.3125 460.546875 295.3125 451.828125 C 331.3125 443.109375 367.875 438.75 405 438.75 C 442.125 438.75 478.6875 443.109375 514.6875 451.828125 C 550.6875 460.546875 586.125 473.625 621 491.0625 C 637.3125 499.5 650.390625 511.734375 660.234375 527.765625 C 670.078125 543.796875 675 561.375 675 580.5 L 675 675 Z M 202.5 607.5 L 607.5 607.5 L 607.5 580.5 C 607.5 574.3125 605.953125 568.6875 602.859375 563.625 C 599.765625 558.5625 595.6875 554.625 590.625 551.8125 C 560.25 536.625 529.59375 525.234375 498.65625 517.640625 C 467.71875 510.046875 436.5 506.25 405 506.25 C 373.5 506.25 342.28125 510.046875 311.34375 517.640625 C 280.40625 525.234375 249.75 536.625 219.375 551.8125 C 214.3125 554.625 210.234375 558.5625 207.140625 563.625 C 204.046875 568.6875 202.5 574.3125 202.5 580.5 Z M 405 337.5 C 423.5625 337.5 439.453125 330.890625 452.671875 317.671875 C 465.890625 304.453125 472.5 288.5625 472.5 270 C 472.5 251.4375 465.890625 235.546875 452.671875 222.328125 C 439.453125 209.109375 423.5625 202.5 405 202.5 C 386.4375 202.5 370.546875 209.109375 357.328125 222.328125 C 344.109375 235.546875 337.5 251.4375 337.5 270 C 337.5 288.5625 344.109375 304.453125 357.328125 317.671875 C 370.546875 330.890625 386.4375 337.5 405 337.5 Z M 405 270 Z M 405 607.5 Z M 405 607.5 " fill-opacity="1" fill-rule="nonzero"/></svg>