<svg xmlns="http://www.w3.org/2000/svg" xmlns:xlink="http://www.w3.org/1999/xlink" width="1080" zoomAndPan="magnify" viewBox="0 0 810 809.999993" height="1080" preserveAspectRatio="xMidYMid meet" version="1.0"><path fill="#000000" d="M 405 540 C 447.1875 540 483.046875 525.234375 512.578125 495.703125 C 542.109375 466.171875 556.875 430.3125 556.875 388.125 C 556.875 345.9375 542.109375 310.078125 512.578125 280.546875 C 483.046875 251.015625 447.1875 236.25 405 236.25 C 362.8125 236.25 326.953125 251.015625 297.421875 280.546875 C 267.890625 310.078125 253.125 345.9375 253.125 388.125 C 253.125 430.3125 267.890625 466.171875 297.421875 495.703125 C 326.953125 525.234375 362.8125 540 405 540 Z M 405 479.25 C 379.6875 479.25 358.171875 470.390625 340.453125 452.671875 C 322.734375 434.953125 313.875 413.4375 313.875 388.125 C 313.875 362.8125 322.734375 341.296875 340.453125 323.578125 C 358.171875 305.859375 379.6875 297 405 297 C 430.3125 297 451.828125 305.859375 469.546875 323.578125 C 487.265625 341.296875 496.125 362.8125 496.125 388.125 C 496.125 413.4375 487.265625 434.953125 469.546875 452.671875 C 451.828125 470.390625 430.3125 479.25 405 479.25 Z M 405 641.25 C 322.875 641.25 248.0625 618.328125 180.5625 572.484375 C 113.0625 526.640625 64.125 465.1875 33.75 388.125 C 64.125 311.0625 113.0625 249.609375 180.5625 203.765625 C 248.0625 157.921875 322.875 135 405 135 C 487.125 135 561.9375 157.921875 629.4375 203.765625 C 696.9375 249.609375 745.875 311.0625 776.25 388.125 C 745.875 465.1875 696.9375 526.640625 629.4375 572.484375 C 561.9375 618.328125 487.125 641.25 405 641.25 Z M 405 388.125 Z M 405 573.75 C 468.5625 573.75 526.921875 557.015625 580.078125 523.546875 C 633.234375 490.078125 673.875 444.9375 702 388.125 C 673.875 331.3125 633.234375 286.171875 580.078125 252.703125 C 526.921875 219.234375 468.5625 202.5 405 202.5 C 341.4375 202.5 283.078125 219.234375 229.921875 252.703125 C 176.765625 286.171875 136.125 331.3125 108 388.125 C 136.125 444.9375 176.765625 490.078125 229.921875 523.546875 C 283.078125 557.015625 341.4375 573.75 405 573.75 Z M 405 573.75 " fill-opacity="1" fill-rule="nonzero"/></svg>