<svg xmlns="http://www.w3.org/2000/svg" xmlns:xlink="http://www.w3.org/1999/xlink" width="1080" zoomAndPan="magnify" viewBox="0 0 810 809.999993" height="1080" preserveAspectRatio="xMidYMid meet" version="1.0"><path fill="#000000" d="M 661.5 708.75 L 448.875 496.125 C 432 509.625 412.59375 520.3125 390.65625 528.1875 C 368.71875 536.0625 345.375 540 320.625 540 C 259.3125 540 207.421875 518.765625 164.953125 476.296875 C 122.484375 433.828125 101.25 381.9375 101.25 320.625 C 101.25 259.3125 122.484375 207.421875 164.953125 164.953125 C 207.421875 122.484375 259.3125 101.25 320.625 101.25 C 381.9375 101.25 433.828125 122.484375 476.296875 164.953125 C 518.765625 207.421875 540 259.3125 540 320.625 C 540 345.375 536.0625 368.71875 528.1875 390.65625 C 520.3125 412.59375 509.625 432 496.125 448.875 L 708.75 661.5 Z M 320.625 472.5 C 362.8125 472.5 398.671875 457.734375 428.203125 428.203125 C 457.734375 398.671875 472.5 362.8125 472.5 320.625 C 472.5 278.4375 457.734375 242.578125 428.203125 213.046875 C 398.671875 183.515625 362.8125 168.75 320.625 168.75 C 278.4375 168.75 242.578125 183.515625 213.046875 213.046875 C 183.515625 242.578125 168.75 278.4375 168.75 320.625 C 168.75 362.8125 183.515625 398.671875 213.046875 428.203125 C 242.578125 457.734375 278.4375 472.5 320.625 472.5 Z M 320.625 472.5 " fill-opacity="1" fill-rule="nonzero"/></svg>