<svg xmlns="http://www.w3.org/2000/svg" xmlns:xlink="http://www.w3.org/1999/xlink" width="1080" zoomAndPan="magnify" viewBox="0 0 810 809.999993" height="1080" preserveAspectRatio="xMidYMid meet" version="1.0"><path fill="#ffffff" d="M 312.1875 742.5 L 298.6875 634.5 C 291.375 631.6875 284.484375 628.3125 278.015625 624.375 C 271.546875 620.4375 265.21875 616.21875 259.03125 611.71875 L 158.625 653.90625 L 65.8125 493.59375 L 152.71875 427.78125 C 152.15625 423.84375 151.875 420.046875 151.875 416.390625 L 151.875 393.609375 C 151.875 389.953125 152.15625 386.15625 152.71875 382.21875 L 65.8125 316.40625 L 158.625 156.09375 L 259.03125 198.28125 C 265.21875 193.78125 271.6875 189.5625 278.4375 185.625 C 285.1875 181.6875 291.9375 178.3125 298.6875 175.5 L 312.1875 67.5 L 497.8125 67.5 L 511.3125 175.5 C 518.625 178.3125 525.515625 181.6875 531.984375 185.625 C 538.453125 189.5625 544.78125 193.78125 550.96875 198.28125 L 651.375 156.09375 L 744.1875 316.40625 L 657.28125 382.21875 C 657.84375 386.15625 658.125 389.953125 658.125 393.609375 L 658.125 416.390625 C 658.125 420.046875 657.5625 423.84375 656.4375 427.78125 L 743.34375 493.59375 L 650.53125 653.90625 L 550.96875 611.71875 C 544.78125 616.21875 538.3125 620.4375 531.5625 624.375 C 524.8125 628.3125 518.0625 631.6875 511.3125 634.5 L 497.8125 742.5 Z M 371.25 675 L 437.90625 675 L 449.71875 585.5625 C 467.15625 581.0625 483.328125 574.453125 498.234375 565.734375 C 513.140625 557.015625 526.78125 546.46875 539.15625 534.09375 L 622.6875 568.6875 L 655.59375 511.3125 L 583.03125 456.46875 C 585.84375 448.59375 587.8125 440.296875 588.9375 431.578125 C 590.0625 422.859375 590.625 414 590.625 405 C 590.625 396 590.0625 387.140625 588.9375 378.421875 C 587.8125 369.703125 585.84375 361.40625 583.03125 353.53125 L 655.59375 298.6875 L 622.6875 241.3125 L 539.15625 276.75 C 526.78125 263.8125 513.140625 252.984375 498.234375 244.265625 C 483.328125 235.546875 467.15625 228.9375 449.71875 224.4375 L 438.75 135 L 372.09375 135 L 360.28125 224.4375 C 342.84375 228.9375 326.671875 235.546875 311.765625 244.265625 C 296.859375 252.984375 283.21875 263.53125 270.84375 275.90625 L 187.3125 241.3125 L 154.40625 298.6875 L 226.96875 352.6875 C 224.15625 361.125 222.1875 369.5625 221.0625 378 C 219.9375 386.4375 219.375 395.4375 219.375 405 C 219.375 414 219.9375 422.71875 221.0625 431.15625 C 222.1875 439.59375 224.15625 448.03125 226.96875 456.46875 L 154.40625 511.3125 L 187.3125 568.6875 L 270.84375 533.25 C 283.21875 546.1875 296.859375 557.015625 311.765625 565.734375 C 326.671875 574.453125 342.84375 581.0625 360.28125 585.5625 Z M 406.6875 523.125 C 439.3125 523.125 467.15625 511.59375 490.21875 488.53125 C 513.28125 465.46875 524.8125 437.625 524.8125 405 C 524.8125 372.375 513.28125 344.53125 490.21875 321.46875 C 467.15625 298.40625 439.3125 286.875 406.6875 286.875 C 373.5 286.875 345.515625 298.40625 322.734375 321.46875 C 299.953125 344.53125 288.5625 372.375 288.5625 405 C 288.5625 437.625 299.953125 465.46875 322.734375 488.53125 C 345.515625 511.59375 373.5 523.125 406.6875 523.125 Z M 405 405 Z M 405 405 " fill-opacity="1" fill-rule="nonzero"/></svg>