<svg xmlns="http://www.w3.org/2000/svg" xmlns:xlink="http://www.w3.org/1999/xlink" width="1080" zoomAndPan="magnify" viewBox="0 0 810 809.999993" height="1080" preserveAspectRatio="xMidYMid meet" version="1.0"><path fill="#ffffff" d="M 403.3125 607.5 C 415.125 607.5 425.109375 603.421875 433.265625 595.265625 C 441.421875 587.109375 445.5 577.125 445.5 565.3125 C 445.5 553.5 441.421875 543.515625 433.265625 535.359375 C 425.109375 527.203125 415.125 523.125 403.3125 523.125 C 391.5 523.125 381.515625 527.203125 373.359375 535.359375 C 365.203125 543.515625 361.125 553.5 361.125 565.3125 C 361.125 577.125 365.203125 587.109375 373.359375 595.265625 C 381.515625 603.421875 391.5 607.5 403.3125 607.5 Z M 372.9375 477.5625 L 435.375 477.5625 C 435.375 459 437.484375 444.375 441.703125 433.6875 C 445.921875 423 457.875 408.375 477.5625 389.8125 C 492.1875 375.1875 503.71875 361.265625 512.15625 348.046875 C 520.59375 334.828125 524.8125 318.9375 524.8125 300.375 C 524.8125 268.875 513.28125 244.6875 490.21875 227.8125 C 467.15625 210.9375 439.875 202.5 408.375 202.5 C 376.3125 202.5 350.296875 210.9375 330.328125 227.8125 C 310.359375 244.6875 296.4375 264.9375 288.5625 288.5625 L 344.25 310.5 C 347.0625 300.375 353.390625 289.40625 363.234375 277.59375 C 373.078125 265.78125 388.125 259.875 408.375 259.875 C 426.375 259.875 439.875 264.796875 448.875 274.640625 C 457.875 284.484375 462.375 295.3125 462.375 307.125 C 462.375 318.375 459 328.921875 452.25 338.765625 C 445.5 348.609375 437.0625 357.75 426.9375 366.1875 C 402.1875 388.125 387 404.71875 381.375 415.96875 C 375.75 427.21875 372.9375 447.75 372.9375 477.5625 Z M 405 742.5 C 358.3125 742.5 314.4375 733.640625 273.375 715.921875 C 232.3125 698.203125 196.59375 674.15625 166.21875 643.78125 C 135.84375 613.40625 111.796875 577.6875 94.078125 536.625 C 76.359375 495.5625 67.5 451.6875 67.5 405 C 67.5 358.3125 76.359375 314.4375 94.078125 273.375 C 111.796875 232.3125 135.84375 196.59375 166.21875 166.21875 C 196.59375 135.84375 232.3125 111.796875 273.375 94.078125 C 314.4375 76.359375 358.3125 67.5 405 67.5 C 451.6875 67.5 495.5625 76.359375 536.625 94.078125 C 577.6875 111.796875 613.40625 135.84375 643.78125 166.21875 C 674.15625 196.59375 698.203125 232.3125 715.921875 273.375 C 733.640625 314.4375 742.5 358.3125 742.5 405 C 742.5 451.6875 733.640625 495.5625 715.921875 536.625 C 698.203125 577.6875 674.15625 613.40625 643.78125 643.78125 C 613.40625 674.15625 577.6875 698.203125 536.625 715.921875 C 495.5625 733.640625 451.6875 742.5 405 742.5 Z M 405 675 C 480.375 675 544.21875 648.84375 596.53125 596.53125 C 648.84375 544.21875 675 480.375 675 405 C 675 329.625 648.84375 265.78125 596.53125 213.46875 C 544.21875 161.15625 480.375 135 405 135 C 329.625 135 265.78125 161.15625 213.46875 213.46875 C 161.15625 265.78125 135 329.625 135 405 C 135 480.375 161.15625 544.21875 213.46875 596.53125 C 265.78125 648.84375 329.625 675 405 675 Z M 405 405 Z M 405 405 " fill-opacity="1" fill-rule="nonzero"/></svg>