<svg xmlns="http://www.w3.org/2000/svg" xmlns:xlink="http://www.w3.org/1999/xlink" width="1080" zoomAndPan="magnify" viewBox="0 0 810 809.999993" height="1080" preserveAspectRatio="xMidYMid meet" version="1.0"><path fill="#ffffff" d="M 369.5625 607.5 L 560.25 416.8125 L 511.3125 367.875 L 368.71875 510.46875 L 297.84375 439.59375 L 249.75 487.6875 Z M 202.5 742.5 C 183.9375 742.5 168.046875 735.890625 154.828125 722.671875 C 141.609375 709.453125 135 693.5625 135 675 L 135 135 C 135 116.4375 141.609375 100.546875 154.828125 87.328125 C 168.046875 74.109375 183.9375 67.5 202.5 67.5 L 472.5 67.5 L 675 270 L 675 675 C 675 693.5625 668.390625 709.453125 655.171875 722.671875 C 641.953125 735.890625 626.0625 742.5 607.5 742.5 Z M 438.75 303.75 L 438.75 135 L 202.5 135 L 202.5 675 L 607.5 675 L 607.5 303.75 Z M 202.5 135 L 202.5 303.75 L 202.5 135 L 202.5 675 Z M 202.5 135 " fill-opacity="1" fill-rule="nonzero"/></svg>